<svg xmlns="http://www.w3.org/2000/svg" width="300" height="300" viewBox="0 0 300 300" role="img" aria-label="KBZ Pay (2) QR code">
  <rect width="300" height="300" rx="24" fill="white"/>
  <rect x="12" y="12" width="276" height="276" rx="20" fill="none" stroke="#ffd84d" stroke-width="10"/>
  <text x="150" y="36" text-anchor="middle" font-family="Arial, sans-serif" font-size="18" font-weight="700" fill="#111827">KBZ Pay (2)</text>
  <g fill="none" stroke="#111827" stroke-width="8">
    <rect x="42" y="62" width="58" height="58" rx="4"/><rect x="200" y="62" width="58" height="58" rx="4"/><rect x="42" y="200" width="58" height="58" rx="4"/>
  </g>
  <g fill="#111827"><rect x="60" y="80" width="22" height="22" rx="3"/><rect x="218" y="80" width="22" height="22" rx="3"/><rect x="60" y="218" width="22" height="22" rx="3"/><rect x="40" y="68" width="14" height="14" rx="2" fill="#111827"/><rect x="80" y="68" width="14" height="14" rx="2" fill="#111827"/><rect x="120" y="68" width="14" height="14" rx="2" fill="#111827"/><rect x="60" y="88" width="14" height="14" rx="2" fill="#111827"/><rect x="100" y="88" width="14" height="14" rx="2" fill="#111827"/><rect x="140" y="88" width="14" height="14" rx="2" fill="#111827"/><rect x="40" y="128" width="14" height="14" rx="2" fill="#111827"/><rect x="80" y="128" width="14" height="14" rx="2" fill="#111827"/><rect x="120" y="148" width="14" height="14" rx="2" fill="#111827"/><rect x="60" y="168" width="14" height="14" rx="2" fill="#111827"/><rect x="140" y="168" width="14" height="14" rx="2" fill="#111827"/></g>
  <text x="150" y="282" text-anchor="middle" font-family="Arial, sans-serif" font-size="13" fill="#4b5563">MN Mart Payment</text>
</svg>